<svg xmlns="http://www.w3.org/2000/svg" xmlns:xlink="http://www.w3.org/1999/xlink" width="188" height="106" viewBox="0 0 188 106"><defs><clipPath id="b"><rect width="188" height="106"/></clipPath></defs><g id="a" clip-path="url(#b)"><g transform="translate(-58 -52)"><g transform="translate(104.25 3)"><g transform="translate(-7 13.74)"><path d="M14.52-22.88a11.966,11.966,0,0,1-3.19-3.41A9.683,9.683,0,0,1,9.9-31.68a5.84,5.84,0,0,1,1.65-4.565A11.98,11.98,0,0,1,16.5-38.61l8.36-2.09a14.674,14.674,0,0,0,5.5-2.86,6.317,6.317,0,0,0,1.76-4.84,6.63,6.63,0,0,0-2.365-4.95q-2.365-2.2-7.865-2.2A30.7,30.7,0,0,0,13.365-54.4,22.2,22.2,0,0,0,6.82-51.48a11.521,11.521,0,0,1-2.915-3.19,8.2,8.2,0,0,1-1.155-4.4,7.369,7.369,0,0,1,1.6-4.675,11.892,11.892,0,0,1,4.4-3.355,25.945,25.945,0,0,1,6.765-1.98,52.272,52.272,0,0,1,8.58-.66A35.472,35.472,0,0,1,35.2-68.145a24.009,24.009,0,0,1,8.14,4.4,18.227,18.227,0,0,1,5.005,6.765,21.464,21.464,0,0,1,1.7,8.58q0,9.57-6.105,15.125T25.52-25.19Z" transform="translate(52 108)" fill="#ffd77d"/><path d="M13.681-26.221a11.113,11.113,0,0,1-2.963-3.167A8.992,8.992,0,0,1,9.39-34.394a5.424,5.424,0,0,1,1.532-4.24,11.126,11.126,0,0,1,4.6-2.2l7.764-1.941a13.627,13.627,0,0,0,5.108-2.656,5.867,5.867,0,0,0,1.635-4.495,6.157,6.157,0,0,0-2.2-4.6q-2.2-2.043-7.3-2.043a28.508,28.508,0,0,0-7.917,1.073A20.618,20.618,0,0,0,6.53-52.782a10.7,10.7,0,0,1-2.707-2.963A7.618,7.618,0,0,1,2.75-59.831a6.843,6.843,0,0,1,1.481-4.342,11.044,11.044,0,0,1,4.086-3.116A24.1,24.1,0,0,1,14.6-69.127a48.545,48.545,0,0,1,7.968-.613,32.943,32.943,0,0,1,10.318,1.481,22.3,22.3,0,0,1,7.56,4.086,16.927,16.927,0,0,1,4.648,6.283,19.934,19.934,0,0,1,1.583,7.968q0,8.888-5.67,14.047T23.9-28.366Z" transform="matrix(0.985, 0.174, -0.174, 0.985, 51.044, 135.98)" fill="#ffd77d"/></g><g transform="translate(-97 13.74)"><path d="M14.52-22.88a11.966,11.966,0,0,1-3.19-3.41A9.683,9.683,0,0,1,9.9-31.68a5.84,5.84,0,0,1,1.65-4.565A11.98,11.98,0,0,1,16.5-38.61l8.36-2.09a14.674,14.674,0,0,0,5.5-2.86,6.317,6.317,0,0,0,1.76-4.84,6.63,6.63,0,0,0-2.365-4.95q-2.365-2.2-7.865-2.2A30.7,30.7,0,0,0,13.365-54.4,22.2,22.2,0,0,0,6.82-51.48a11.521,11.521,0,0,1-2.915-3.19,8.2,8.2,0,0,1-1.155-4.4,7.369,7.369,0,0,1,1.6-4.675,11.892,11.892,0,0,1,4.4-3.355,25.945,25.945,0,0,1,6.765-1.98,52.272,52.272,0,0,1,8.58-.66A35.472,35.472,0,0,1,35.2-68.145a24.009,24.009,0,0,1,8.14,4.4,18.227,18.227,0,0,1,5.005,6.765,21.464,21.464,0,0,1,1.7,8.58q0,9.57-6.105,15.125T25.52-25.19Z" transform="translate(52 108)" fill="#ffd77d"/><path d="M13.681-26.221a11.113,11.113,0,0,1-2.963-3.167A8.992,8.992,0,0,1,9.39-34.394a5.424,5.424,0,0,1,1.532-4.24,11.126,11.126,0,0,1,4.6-2.2l7.764-1.941a13.627,13.627,0,0,0,5.108-2.656,5.867,5.867,0,0,0,1.635-4.495,6.157,6.157,0,0,0-2.2-4.6q-2.2-2.043-7.3-2.043a28.508,28.508,0,0,0-7.917,1.073A20.618,20.618,0,0,0,6.53-52.782a10.7,10.7,0,0,1-2.707-2.963A7.618,7.618,0,0,1,2.75-59.831a6.843,6.843,0,0,1,1.481-4.342,11.044,11.044,0,0,1,4.086-3.116A24.1,24.1,0,0,1,14.6-69.127a48.545,48.545,0,0,1,7.968-.613,32.943,32.943,0,0,1,10.318,1.481,22.3,22.3,0,0,1,7.56,4.086,16.927,16.927,0,0,1,4.648,6.283,19.934,19.934,0,0,1,1.583,7.968q0,8.888-5.67,14.047T23.9-28.366Z" transform="matrix(0.985, 0.174, -0.174, 0.985, 51.044, 135.98)" fill="#ffd77d"/><path d="M11.33-7.81a9.527,9.527,0,0,1,2.585-6.875,9.512,9.512,0,0,1,7.2-2.695,9.367,9.367,0,0,1,7.095,2.695A9.527,9.527,0,0,1,30.8-7.81,9.527,9.527,0,0,1,28.215-.935a9.367,9.367,0,0,1-7.095,2.7,9.512,9.512,0,0,1-7.2-2.7A9.527,9.527,0,0,1,11.33-7.81Z" transform="translate(56 134)" fill="#ffd77d"/></g><path d="M19.17-.09a17.718,17.718,0,0,1-2.52.5,26.306,26.306,0,0,1-3.6.225Q9,.63,7.245-.675T5.49-5.76V-42.75a21.624,21.624,0,0,1,2.52-.54,21.992,21.992,0,0,1,3.6-.27q4.05,0,5.805,1.35t1.755,5.13ZM4.68-55.71A7.189,7.189,0,0,1,6.8-60.93a7.4,7.4,0,0,1,5.535-2.16,7.4,7.4,0,0,1,5.535,2.16,7.189,7.189,0,0,1,2.115,5.22,7.3,7.3,0,0,1-2.115,5.31,7.4,7.4,0,0,1-5.535,2.16A7.4,7.4,0,0,1,6.8-50.4,7.3,7.3,0,0,1,4.68-55.71ZM31.5.63q-4.05,0-5.805-1.305T23.94-5.76V-58.59a21.376,21.376,0,0,1,2.565-.54,22.832,22.832,0,0,1,3.645-.27q3.96,0,5.76,1.35t1.8,5.13V-.09a21.567,21.567,0,0,1-2.61.5A26.306,26.306,0,0,1,31.5.63Z" transform="translate(8 122)" fill="#ffd77d"/><path d="M19.17-.09a17.718,17.718,0,0,1-2.52.5,26.306,26.306,0,0,1-3.6.225Q9,.63,7.245-.675T5.49-5.76V-42.75a21.624,21.624,0,0,1,2.52-.54,21.992,21.992,0,0,1,3.6-.27q4.05,0,5.805,1.35t1.755,5.13ZM4.68-55.71A7.189,7.189,0,0,1,6.8-60.93a7.4,7.4,0,0,1,5.535-2.16,7.4,7.4,0,0,1,5.535,2.16,7.189,7.189,0,0,1,2.115,5.22,7.3,7.3,0,0,1-2.115,5.31,7.4,7.4,0,0,1-5.535,2.16A7.4,7.4,0,0,1,6.8-50.4,7.3,7.3,0,0,1,4.68-55.71ZM31.5.63q-4.05,0-5.805-1.305T23.94-5.76V-58.59a21.376,21.376,0,0,1,2.565-.54,22.832,22.832,0,0,1,3.645-.27q3.96,0,5.76,1.35t1.8,5.13V-.09a21.567,21.567,0,0,1-2.61.5A26.306,26.306,0,0,1,31.5.63Z" transform="translate(98 122)" fill="#ffd77d"/></g><g transform="translate(106.25 6)"><g transform="translate(-7 13.74)"><path d="M14.52-22.88a11.966,11.966,0,0,1-3.19-3.41A9.683,9.683,0,0,1,9.9-31.68a5.84,5.84,0,0,1,1.65-4.565A11.98,11.98,0,0,1,16.5-38.61l8.36-2.09a14.674,14.674,0,0,0,5.5-2.86,6.317,6.317,0,0,0,1.76-4.84,6.63,6.63,0,0,0-2.365-4.95q-2.365-2.2-7.865-2.2A30.7,30.7,0,0,0,13.365-54.4,22.2,22.2,0,0,0,6.82-51.48a11.521,11.521,0,0,1-2.915-3.19,8.2,8.2,0,0,1-1.155-4.4,7.369,7.369,0,0,1,1.6-4.675,11.892,11.892,0,0,1,4.4-3.355,25.945,25.945,0,0,1,6.765-1.98,52.272,52.272,0,0,1,8.58-.66A35.472,35.472,0,0,1,35.2-68.145a24.009,24.009,0,0,1,8.14,4.4,18.227,18.227,0,0,1,5.005,6.765,21.464,21.464,0,0,1,1.7,8.58q0,9.57-6.105,15.125T25.52-25.19Z" transform="translate(52 108)" fill="#fff"/><path d="M13.681-26.221a11.113,11.113,0,0,1-2.963-3.167A8.992,8.992,0,0,1,9.39-34.394a5.424,5.424,0,0,1,1.532-4.24,11.126,11.126,0,0,1,4.6-2.2l7.764-1.941a13.627,13.627,0,0,0,5.108-2.656,5.867,5.867,0,0,0,1.635-4.495,6.157,6.157,0,0,0-2.2-4.6q-2.2-2.043-7.3-2.043a28.508,28.508,0,0,0-7.917,1.073A20.618,20.618,0,0,0,6.53-52.782a10.7,10.7,0,0,1-2.707-2.963A7.618,7.618,0,0,1,2.75-59.831a6.843,6.843,0,0,1,1.481-4.342,11.044,11.044,0,0,1,4.086-3.116A24.1,24.1,0,0,1,14.6-69.127a48.545,48.545,0,0,1,7.968-.613,32.943,32.943,0,0,1,10.318,1.481,22.3,22.3,0,0,1,7.56,4.086,16.927,16.927,0,0,1,4.648,6.283,19.934,19.934,0,0,1,1.583,7.968q0,8.888-5.67,14.047T23.9-28.366Z" transform="matrix(0.985, 0.174, -0.174, 0.985, 51.044, 135.98)" fill="#fff"/></g><g transform="translate(-97 13.74)"><path d="M14.52-22.88a11.966,11.966,0,0,1-3.19-3.41A9.683,9.683,0,0,1,9.9-31.68a5.84,5.84,0,0,1,1.65-4.565A11.98,11.98,0,0,1,16.5-38.61l8.36-2.09a14.674,14.674,0,0,0,5.5-2.86,6.317,6.317,0,0,0,1.76-4.84,6.63,6.63,0,0,0-2.365-4.95q-2.365-2.2-7.865-2.2A30.7,30.7,0,0,0,13.365-54.4,22.2,22.2,0,0,0,6.82-51.48a11.521,11.521,0,0,1-2.915-3.19,8.2,8.2,0,0,1-1.155-4.4,7.369,7.369,0,0,1,1.6-4.675,11.892,11.892,0,0,1,4.4-3.355,25.945,25.945,0,0,1,6.765-1.98,52.272,52.272,0,0,1,8.58-.66A35.472,35.472,0,0,1,35.2-68.145a24.009,24.009,0,0,1,8.14,4.4,18.227,18.227,0,0,1,5.005,6.765,21.464,21.464,0,0,1,1.7,8.58q0,9.57-6.105,15.125T25.52-25.19Z" transform="translate(52 108)" fill="#fff"/><path d="M13.681-26.221a11.113,11.113,0,0,1-2.963-3.167A8.992,8.992,0,0,1,9.39-34.394a5.424,5.424,0,0,1,1.532-4.24,11.126,11.126,0,0,1,4.6-2.2l7.764-1.941a13.627,13.627,0,0,0,5.108-2.656,5.867,5.867,0,0,0,1.635-4.495,6.157,6.157,0,0,0-2.2-4.6q-2.2-2.043-7.3-2.043a28.508,28.508,0,0,0-7.917,1.073A20.618,20.618,0,0,0,6.53-52.782a10.7,10.7,0,0,1-2.707-2.963A7.618,7.618,0,0,1,2.75-59.831a6.843,6.843,0,0,1,1.481-4.342,11.044,11.044,0,0,1,4.086-3.116A24.1,24.1,0,0,1,14.6-69.127a48.545,48.545,0,0,1,7.968-.613,32.943,32.943,0,0,1,10.318,1.481,22.3,22.3,0,0,1,7.56,4.086,16.927,16.927,0,0,1,4.648,6.283,19.934,19.934,0,0,1,1.583,7.968q0,8.888-5.67,14.047T23.9-28.366Z" transform="matrix(0.985, 0.174, -0.174, 0.985, 51.044, 135.98)" fill="#fff"/><path d="M11.33-7.81a9.527,9.527,0,0,1,2.585-6.875,9.512,9.512,0,0,1,7.2-2.695,9.367,9.367,0,0,1,7.095,2.695A9.527,9.527,0,0,1,30.8-7.81,9.527,9.527,0,0,1,28.215-.935a9.367,9.367,0,0,1-7.095,2.7,9.512,9.512,0,0,1-7.2-2.7A9.527,9.527,0,0,1,11.33-7.81Z" transform="translate(56 134)" fill="#fff"/></g><path d="M19.17-.09a17.718,17.718,0,0,1-2.52.5,26.306,26.306,0,0,1-3.6.225Q9,.63,7.245-.675T5.49-5.76V-42.75a21.624,21.624,0,0,1,2.52-.54,21.992,21.992,0,0,1,3.6-.27q4.05,0,5.805,1.35t1.755,5.13ZM4.68-55.71A7.189,7.189,0,0,1,6.8-60.93a7.4,7.4,0,0,1,5.535-2.16,7.4,7.4,0,0,1,5.535,2.16,7.189,7.189,0,0,1,2.115,5.22,7.3,7.3,0,0,1-2.115,5.31,7.4,7.4,0,0,1-5.535,2.16A7.4,7.4,0,0,1,6.8-50.4,7.3,7.3,0,0,1,4.68-55.71ZM31.5.63q-4.05,0-5.805-1.305T23.94-5.76V-58.59a21.376,21.376,0,0,1,2.565-.54,22.832,22.832,0,0,1,3.645-.27q3.96,0,5.76,1.35t1.8,5.13V-.09a21.567,21.567,0,0,1-2.61.5A26.306,26.306,0,0,1,31.5.63Z" transform="translate(8 122)" fill="#fff"/><path d="M19.17-.09a17.718,17.718,0,0,1-2.52.5,26.306,26.306,0,0,1-3.6.225Q9,.63,7.245-.675T5.49-5.76V-42.75a21.624,21.624,0,0,1,2.52-.54,21.992,21.992,0,0,1,3.6-.27q4.05,0,5.805,1.35t1.755,5.13ZM4.68-55.71A7.189,7.189,0,0,1,6.8-60.93a7.4,7.4,0,0,1,5.535-2.16,7.4,7.4,0,0,1,5.535,2.16,7.189,7.189,0,0,1,2.115,5.22,7.3,7.3,0,0,1-2.115,5.31,7.4,7.4,0,0,1-5.535,2.16A7.4,7.4,0,0,1,6.8-50.4,7.3,7.3,0,0,1,4.68-55.71ZM31.5.63q-4.05,0-5.805-1.305T23.94-5.76V-58.59a21.376,21.376,0,0,1,2.565-.54,22.832,22.832,0,0,1,3.645-.27q3.96,0,5.76,1.35t1.8,5.13V-.09a21.567,21.567,0,0,1-2.61.5A26.306,26.306,0,0,1,31.5.63Z" transform="translate(98 122)" fill="#fff"/></g></g></g></svg>